<svg width="16" height="16" viewBox="0 0 16 16" fill="none" xmlns="http://www.w3.org/2000/svg">
<path d="M11.6187 5.38145C11.9593 5.72207 11.9593 6.27832 11.6187 6.61895L7.6187 10.6189C7.27808 10.9596 6.72183 10.9596 6.3812 10.6189L4.3812 8.61894C4.04058 8.27832 4.04058 7.72207 4.3812 7.38145C4.72183 7.04082 5.27808 7.04082 5.6187 7.38145L6.99995 8.7627L10.3812 5.38145C10.7218 5.04082 11.2781 5.04082 11.6187 5.38145Z" fill="#48BB78"/>
<path opacity="0.4" d="M0 8C0 3.58125 3.58125 0 8 0C12.4187 0 16 3.58125 16 8C16 12.4187 12.4187 16 8 16C3.58125 16 0 12.4187 0 8ZM11.6187 6.61875C11.9594 6.27813 11.9594 5.72187 11.6187 5.38125C11.2781 5.04063 10.7219 5.04063 10.3813 5.38125L7 8.7625L5.61875 7.38125C5.27813 7.04063 4.72187 7.04063 4.38125 7.38125C4.04063 7.72187 4.04063 8.27812 4.38125 8.61875L6.38125 10.6187C6.72187 10.9594 7.27813 10.9594 7.61875 10.6187L11.6187 6.61875Z" fill="#48BB78"/>
</svg>
