<svg width="1380" height="1107" viewBox="0 0 1380 1107" fill="none" xmlns="http://www.w3.org/2000/svg">
<path d="M102.684 0L102.684 1106.75M396.557 0L396.557 1106.75M690.43 0L690.43 1106.75M984.303 0V1106.75M1374.84 82.9203H0M1376.56 376.793H1.71856M1378.28 670.666H3.43711M1380 964.539H5.15567M1278.18 0V1106.75" stroke="url(#paint0_radial_86_361)" stroke-width="2"/>
<path d="M1374.84 114.714L0 114.714M1374.84 147.366L0 147.366M1374.84 180.019L0 180.019M1374.84 212.671L0 212.671M1374.84 245.324L0 245.324M1374.84 277.976L0 277.976M1374.84 310.629L0 310.629M1374.84 343.282L0 343.281M1376.56 408.587L1.71856 408.587M1376.56 441.239L1.71856 441.239M1376.56 473.892L1.71856 473.892M1376.56 506.544L1.71856 506.544M1376.56 539.197L1.71856 539.197M1376.56 571.849L1.71856 571.849M1376.56 604.502L1.71856 604.502M1376.56 637.155L1.71856 637.154M1378.28 702.46L3.43711 702.46M1378.28 735.112L3.43711 735.112M1378.28 767.765L3.43711 767.765M1378.28 800.417L3.43711 800.417M1378.28 833.07L3.43711 833.07M1378.28 865.722L3.43711 865.722M1378.28 898.375L3.43711 898.375M1378.28 931.028L3.43711 931.027M1380 996.333L5.15567 996.333M1380 1028.99L5.15567 1028.99M1380 1061.64L5.15567 1061.64M1374.84 49.4085L0 49.4085M1376.56 82.0611H1.878e-08M134.477 1.87797e-08V1106.75M167.13 1.87797e-08V1106.75M199.782 1.87797e-08V1106.75M232.435 1.87797e-08V1106.75M265.087 1.87797e-08V1106.75M297.74 1.87797e-08V1106.75M330.392 1.87797e-08V1106.75M363.045 1.87797e-08V1106.75M1309.11 1106.75V0M68.3126 1106.75L68.3126 0M428.35 1.87797e-08V1106.75M461.002 1.87797e-08V1106.75M493.655 1.87797e-08V1106.75M526.308 1.87797e-08V1106.75M558.96 1.87797e-08V1106.75M591.613 1.87797e-08V1106.75M624.265 1.87797e-08V1106.75M656.918 1.87797e-08V1106.75M722.223 1.87797e-08V1106.75M754.875 1.87797e-08V1106.75M787.528 1.87797e-08V1106.75M820.181 1.87797e-08V1106.75M852.833 1.87797e-08V1106.75M885.486 1.87797e-08V1106.75M918.138 1.87797e-08V1106.75M950.791 1.87797e-08V1106.75M1016.1 1.87797e-08V1106.75M1048.75 1.87797e-08V1106.75M1081.4 1.87797e-08V1106.75M1114.05 1.87797e-08V1106.75M1146.71 1.87797e-08V1106.75M1179.36 1.87797e-08V1106.75M1212.01 1.87797e-08V1106.75M1244.66 1.87797e-08V1106.75" stroke="url(#paint1_radial_86_361)" stroke-opacity="0.2"/>
<defs>
<radialGradient id="paint0_radial_86_361" cx="0" cy="0" r="1" gradientUnits="userSpaceOnUse" gradientTransform="translate(690 558.745) rotate(90) scale(590.109 735.804)">
<stop stop-color="#948DA9" stop-opacity="0.5"/>
<stop offset="0.0001" stop-color="#948DA9" stop-opacity="0.35"/>
<stop offset="0.770833" stop-color="#D9D9D9" stop-opacity="0.1"/>
<stop offset="1" stop-color="#D9D9D9" stop-opacity="0"/>
</radialGradient>
<radialGradient id="paint1_radial_86_361" cx="0" cy="0" r="1" gradientUnits="userSpaceOnUse" gradientTransform="translate(690 553.375) rotate(90) scale(553.375 690)">
<stop stop-color="#948DA9"/>
<stop offset="0.697917" stop-color="#948DA9" stop-opacity="0.83"/>
<stop offset="1" stop-color="#948DA9" stop-opacity="0"/>
</radialGradient>
</defs>
</svg>
